# xmcd
#
# Track frame offsets:
#	182
#	31002
#	45995
#	59477
#	74082
#	93672
#	108060
#	124887
#	142097
#	155795
#	177977
#	187855
#	207442
#	227165
#	243015
#	263312
#
# Disc length: 3716 seconds
#
# Revision: 2
# Processed by: cddbd v1.5.2PL0 Copyright (c) Steve Scherf et al.
# Submitted via: EasyCDDAExtractor 11.5.0.1
#
DISCID=dc0e8210
DTITLE=Valerie Simpson - The Best of Valerie Simpson
DYEAR=1971
DGENRE=Soul
TTITLE0=I Don't Need No Help
TTITLE1=Love Woke Me Up This Morning
TTITLE2=Now That There's You
TTITLE3=Sinner Man
TTITLE4=Can't It Wait Until Tomorrow
TTITLE5=I Just Want To Be There
TTITLE6=Back To Nowhere
TTITLE7=There Is A God
TTITLE8=A World Without Sunlight
TTITLE9=We Can Work It Out
TTITLE10=Silly Wasn't I
TTITLE11=Fix It Alright
TTITLE12=One More Baby Child Born
TTITLE13=Keep It Coming
TTITLE14=Genius (Part 1)
TTITLE15=Genius (Part 2)
EXTD=
EXTT0=
EXTT1=
EXTT2=
EXTT3=
EXTT4=
EXTT5=
EXTT6=
EXTT7=
EXTT8=
EXTT9=
EXTT10=
EXTT11=
EXTT12=
EXTT13=
EXTT14=
EXTT15=
PLAYORDER=
